<svg width="12" height="15" viewBox="0 0 12 15" fill="none" xmlns="http://www.w3.org/2000/svg">
<mask id="mask0_807_1584" style="mask-type:luminance" maskUnits="userSpaceOnUse" x="0" y="10" width="12" height="5">
<path fill-rule="evenodd" clip-rule="evenodd" d="M0 10.0654H11.9576V15H0V10.0654Z" fill="white"/>
</mask>
<g mask="url(#mask0_807_1584)">
<path fill-rule="evenodd" clip-rule="evenodd" d="M5.97958 11.0689C2.76294 11.0689 1.13235 11.5588 1.13235 12.5257C1.13235 13.5014 2.76294 13.996 5.97958 13.996C9.19547 13.996 10.8253 13.5061 10.8253 12.5391C10.8253 11.5634 9.19547 11.0689 5.97958 11.0689ZM5.97958 15C4.50073 15 0 15 0 12.526C0 10.3203 3.41291 10.0654 5.97958 10.0654C7.45844 10.0654 11.9577 10.0654 11.9577 12.5394C11.9577 14.745 8.5455 15 5.97958 15Z" fill="#7B6F72"/>
</g>
<mask id="mask1_807_1584" style="mask-type:luminance" maskUnits="userSpaceOnUse" x="1" y="0" width="10" height="9">
<path fill-rule="evenodd" clip-rule="evenodd" d="M1.00654 0H10.5686L10.0654 8.01601H1.00654V0Z" fill="white"/>
</mask>
<g mask="url(#mask1_807_1584)">
<path fill-rule="evenodd" clip-rule="evenodd" d="M6.02239 1.078C4.40615 1.078 3.09111 2.39229 3.09111 4.00853C3.08582 5.6195 4.39105 6.93303 6.0005 6.93906L6.02239 7.47806V6.93906C7.63788 6.93906 8.95217 5.62402 8.95217 4.00853C8.95217 2.39229 7.63788 1.078 6.02239 1.078ZM6.02238 8.01631H5.99823C3.7924 8.00952 2.00555 6.21058 2.0131 4.00627C2.0131 1.79818 3.81127 0 6.02238 0C8.23274 0 10.0302 1.79818 10.0302 4.00853C10.0302 6.21889 8.23274 8.01631 6.02238 8.01631Z" fill="#7B6F72"/>
</g>
</svg>
